<mxfile host="app.diagrams.net" modified="2022-10-20T10:29:59.876Z" agent="5.0 (Windows NT 10.0; Win64; x64) AppleWebKit/537.36 (KHTML, like Gecko) Chrome/106.0.0.0 Safari/537.36" etag="AWNo3nd2VJ9Kmcx3txLH" version="20.4.2" type="github">
  <diagram name="Page-1" id="c7558073-3199-34d8-9f00-42111426c3f3">
    <mxGraphModel dx="924" dy="492" grid="1" gridSize="10" guides="1" tooltips="1" connect="1" arrows="1" fold="1" page="1" pageScale="1" pageWidth="826" pageHeight="1169" background="none" math="0" shadow="0">
      <root>
        <mxCell id="0" />
        <mxCell id="1" parent="0" />
        <mxCell id="zzvABC9y7qfsUwYfqDOj-96" value="Admin" style="swimlane;childLayout=stackLayout;resizeParent=1;resizeParentMax=0;horizontal=1;startSize=20;horizontalStack=0;hachureGap=4;fontFamily=Verdana;fontSize=20;strokeColor=#FF3399;fillColor=#FFFFFF;fontColor=#000000;" vertex="1" parent="1">
          <mxGeometry x="260" y="260" width="816" height="900" as="geometry" />
        </mxCell>
        <mxCell id="zzvABC9y7qfsUwYfqDOj-97" value="Management" style="swimlane;startSize=20;horizontal=0;hachureGap=4;fontFamily=Verdana;fontSize=20;fontColor=#000000;strokeColor=#FF3399;fillColor=#FFFFFF;swimlaneLine=1;labelBorderColor=none;" vertex="1" parent="zzvABC9y7qfsUwYfqDOj-96">
          <mxGeometry y="20" width="816" height="880" as="geometry" />
        </mxCell>
        <mxCell id="zzvABC9y7qfsUwYfqDOj-98" value="Start" style="rounded=1;whiteSpace=wrap;html=1;hachureGap=4;fontFamily=Verdana;fontSize=20;strokeColor=#d6b656;fillColor=#fff2cc;" vertex="1" parent="zzvABC9y7qfsUwYfqDOj-97">
          <mxGeometry x="47" y="25" width="120" height="60" as="geometry" />
        </mxCell>
        <mxCell id="zzvABC9y7qfsUwYfqDOj-99" value="Add Module" style="whiteSpace=wrap;html=1;fontSize=20;fontFamily=Verdana;fillColor=#f8cecc;strokeColor=#b85450;rounded=1;hachureGap=4;" vertex="1" parent="zzvABC9y7qfsUwYfqDOj-97">
          <mxGeometry x="385" y="25" width="120" height="60" as="geometry" />
        </mxCell>
        <mxCell id="zzvABC9y7qfsUwYfqDOj-100" value="Login" style="whiteSpace=wrap;html=1;fontSize=20;fontFamily=Verdana;fillColor=#f8cecc;strokeColor=#b85450;rounded=1;hachureGap=4;" vertex="1" parent="zzvABC9y7qfsUwYfqDOj-97">
          <mxGeometry x="210" y="25" width="120" height="60" as="geometry" />
        </mxCell>
        <mxCell id="zzvABC9y7qfsUwYfqDOj-101" value="" style="edgeStyle=orthogonalEdgeStyle;rounded=0;orthogonalLoop=1;jettySize=auto;html=1;fontSize=12;endArrow=open;startSize=14;endSize=14;" edge="1" parent="zzvABC9y7qfsUwYfqDOj-97" source="zzvABC9y7qfsUwYfqDOj-98" target="zzvABC9y7qfsUwYfqDOj-100">
          <mxGeometry relative="1" as="geometry" />
        </mxCell>
        <mxCell id="zzvABC9y7qfsUwYfqDOj-102" value="" style="edgeStyle=orthogonalEdgeStyle;rounded=0;orthogonalLoop=1;jettySize=auto;html=1;fontSize=12;endArrow=open;startSize=14;endSize=14;" edge="1" parent="zzvABC9y7qfsUwYfqDOj-97" source="zzvABC9y7qfsUwYfqDOj-100" target="zzvABC9y7qfsUwYfqDOj-99">
          <mxGeometry relative="1" as="geometry" />
        </mxCell>
        <mxCell id="zzvABC9y7qfsUwYfqDOj-103" value="Receive Data from Frontend" style="whiteSpace=wrap;html=1;fontSize=20;fontFamily=Verdana;fillColor=#f8cecc;strokeColor=#b85450;rounded=1;hachureGap=4;" vertex="1" parent="zzvABC9y7qfsUwYfqDOj-97">
          <mxGeometry x="599" y="10" width="160" height="90" as="geometry" />
        </mxCell>
        <mxCell id="zzvABC9y7qfsUwYfqDOj-104" value="" style="edgeStyle=orthogonalEdgeStyle;rounded=0;orthogonalLoop=1;jettySize=auto;html=1;fontSize=12;endArrow=open;startSize=14;endSize=14;" edge="1" parent="zzvABC9y7qfsUwYfqDOj-97" source="zzvABC9y7qfsUwYfqDOj-99" target="zzvABC9y7qfsUwYfqDOj-103">
          <mxGeometry relative="1" as="geometry" />
        </mxCell>
        <mxCell id="zzvABC9y7qfsUwYfqDOj-105" value="&lt;font&gt;Create Edit Delete &lt;br&gt;Booking&lt;/font&gt;" style="rhombus;whiteSpace=wrap;html=1;fontSize=20;fontFamily=Verdana;fillColor=#e3c800;strokeColor=#B09500;fontColor=#000000;rounded=1;hachureGap=4;" vertex="1" parent="zzvABC9y7qfsUwYfqDOj-97">
          <mxGeometry x="594" y="135" width="170" height="180" as="geometry" />
        </mxCell>
        <mxCell id="zzvABC9y7qfsUwYfqDOj-106" value="" style="edgeStyle=orthogonalEdgeStyle;rounded=0;orthogonalLoop=1;jettySize=auto;html=1;fontSize=12;endArrow=open;startSize=14;endSize=14;" edge="1" parent="zzvABC9y7qfsUwYfqDOj-97" source="zzvABC9y7qfsUwYfqDOj-103" target="zzvABC9y7qfsUwYfqDOj-105">
          <mxGeometry relative="1" as="geometry" />
        </mxCell>
        <mxCell id="zzvABC9y7qfsUwYfqDOj-107" value="Modify Tripes" style="whiteSpace=wrap;html=1;fontSize=20;fontFamily=Verdana;fillColor=#f8cecc;strokeColor=#b85450;rounded=1;hachureGap=4;" vertex="1" parent="zzvABC9y7qfsUwYfqDOj-97">
          <mxGeometry x="350" y="175" width="150" height="100" as="geometry" />
        </mxCell>
        <mxCell id="zzvABC9y7qfsUwYfqDOj-108" value="" style="edgeStyle=orthogonalEdgeStyle;rounded=0;orthogonalLoop=1;jettySize=auto;html=1;fontSize=12;endArrow=open;startSize=14;endSize=14;" edge="1" parent="zzvABC9y7qfsUwYfqDOj-97" source="zzvABC9y7qfsUwYfqDOj-105" target="zzvABC9y7qfsUwYfqDOj-107">
          <mxGeometry relative="1" as="geometry" />
        </mxCell>
        <mxCell id="zzvABC9y7qfsUwYfqDOj-109" style="edgeStyle=orthogonalEdgeStyle;rounded=0;orthogonalLoop=1;jettySize=auto;html=1;fontSize=12;fontColor=#FFFFFF;endArrow=open;startSize=14;endSize=14;" edge="1" parent="zzvABC9y7qfsUwYfqDOj-97" source="zzvABC9y7qfsUwYfqDOj-110" target="zzvABC9y7qfsUwYfqDOj-115">
          <mxGeometry relative="1" as="geometry" />
        </mxCell>
        <mxCell id="zzvABC9y7qfsUwYfqDOj-110" value="Restore Data" style="whiteSpace=wrap;html=1;fontSize=20;fontFamily=Verdana;fillColor=#f8cecc;strokeColor=#b85450;rounded=1;hachureGap=4;" vertex="1" parent="zzvABC9y7qfsUwYfqDOj-97">
          <mxGeometry x="614" y="354" width="130" height="80" as="geometry" />
        </mxCell>
        <mxCell id="zzvABC9y7qfsUwYfqDOj-111" value="" style="edgeStyle=orthogonalEdgeStyle;rounded=0;orthogonalLoop=1;jettySize=auto;html=1;fontSize=12;endArrow=open;startSize=14;endSize=14;" edge="1" parent="zzvABC9y7qfsUwYfqDOj-97" source="zzvABC9y7qfsUwYfqDOj-105" target="zzvABC9y7qfsUwYfqDOj-110">
          <mxGeometry relative="1" as="geometry" />
        </mxCell>
        <mxCell id="zzvABC9y7qfsUwYfqDOj-112" style="edgeStyle=none;rounded=0;orthogonalLoop=1;jettySize=auto;html=1;exitX=0;exitY=0.5;exitDx=0;exitDy=0;entryX=1;entryY=0.5;entryDx=0;entryDy=0;fontSize=12;fontColor=#000000;endArrow=open;startSize=14;endSize=14;" edge="1" parent="zzvABC9y7qfsUwYfqDOj-97" source="zzvABC9y7qfsUwYfqDOj-113" target="zzvABC9y7qfsUwYfqDOj-129">
          <mxGeometry relative="1" as="geometry" />
        </mxCell>
        <mxCell id="zzvABC9y7qfsUwYfqDOj-113" value="&lt;font&gt;Modify Events&lt;/font&gt;" style="rhombus;whiteSpace=wrap;html=1;fontSize=20;fontFamily=Verdana;fillColor=#e3c800;strokeColor=#B09500;fontColor=#000000;rounded=1;hachureGap=4;" vertex="1" parent="zzvABC9y7qfsUwYfqDOj-97">
          <mxGeometry x="321.25" y="330" width="207.5" height="160" as="geometry" />
        </mxCell>
        <mxCell id="zzvABC9y7qfsUwYfqDOj-114" value="" style="edgeStyle=orthogonalEdgeStyle;rounded=0;orthogonalLoop=1;jettySize=auto;html=1;fontSize=12;endArrow=open;startSize=14;endSize=14;" edge="1" parent="zzvABC9y7qfsUwYfqDOj-97" source="zzvABC9y7qfsUwYfqDOj-107" target="zzvABC9y7qfsUwYfqDOj-113">
          <mxGeometry relative="1" as="geometry" />
        </mxCell>
        <mxCell id="zzvABC9y7qfsUwYfqDOj-115" value="Data Save" style="rounded=1;whiteSpace=wrap;html=1;hachureGap=4;fontFamily=Verdana;fontSize=20;strokeColor=#b85450;fillColor=#f8cecc;" vertex="1" parent="zzvABC9y7qfsUwYfqDOj-97">
          <mxGeometry x="574" y="640" width="210" height="60" as="geometry" />
        </mxCell>
        <mxCell id="zzvABC9y7qfsUwYfqDOj-116" value="No" style="text;html=1;strokeColor=none;fillColor=none;align=center;verticalAlign=middle;whiteSpace=wrap;rounded=0;fontSize=16;fontColor=#000000;" vertex="1" parent="zzvABC9y7qfsUwYfqDOj-97">
          <mxGeometry x="505" y="480" width="60" height="30" as="geometry" />
        </mxCell>
        <mxCell id="zzvABC9y7qfsUwYfqDOj-117" style="edgeStyle=none;rounded=0;orthogonalLoop=1;jettySize=auto;html=1;exitX=0.5;exitY=1;exitDx=0;exitDy=0;entryX=0.5;entryY=0;entryDx=0;entryDy=0;fontSize=12;fontColor=#000000;endArrow=open;startSize=14;endSize=14;" edge="1" parent="zzvABC9y7qfsUwYfqDOj-97" source="zzvABC9y7qfsUwYfqDOj-118" target="zzvABC9y7qfsUwYfqDOj-127">
          <mxGeometry relative="1" as="geometry" />
        </mxCell>
        <mxCell id="zzvABC9y7qfsUwYfqDOj-118" value="&lt;font&gt;Role Manage&lt;/font&gt;" style="rhombus;whiteSpace=wrap;html=1;fontSize=20;fontFamily=Verdana;fillColor=#e3c800;strokeColor=#B09500;fontColor=#000000;rounded=1;hachureGap=4;" vertex="1" parent="zzvABC9y7qfsUwYfqDOj-97">
          <mxGeometry x="40" y="470" width="207.5" height="160" as="geometry" />
        </mxCell>
        <mxCell id="zzvABC9y7qfsUwYfqDOj-119" style="edgeStyle=orthogonalEdgeStyle;rounded=0;orthogonalLoop=1;jettySize=auto;html=1;entryX=0.5;entryY=0;entryDx=0;entryDy=0;fontSize=12;fontColor=#000000;endArrow=open;startSize=14;endSize=14;exitX=0.5;exitY=1;exitDx=0;exitDy=0;" edge="1" parent="zzvABC9y7qfsUwYfqDOj-97" source="zzvABC9y7qfsUwYfqDOj-121" target="zzvABC9y7qfsUwYfqDOj-122">
          <mxGeometry relative="1" as="geometry" />
        </mxCell>
        <mxCell id="zzvABC9y7qfsUwYfqDOj-120" style="edgeStyle=none;rounded=0;orthogonalLoop=1;jettySize=auto;html=1;exitX=1;exitY=0.5;exitDx=0;exitDy=0;entryX=0;entryY=0.5;entryDx=0;entryDy=0;fontSize=12;fontColor=#000000;endArrow=open;startSize=14;endSize=14;" edge="1" parent="zzvABC9y7qfsUwYfqDOj-97" source="zzvABC9y7qfsUwYfqDOj-121" target="zzvABC9y7qfsUwYfqDOj-115">
          <mxGeometry relative="1" as="geometry" />
        </mxCell>
        <mxCell id="zzvABC9y7qfsUwYfqDOj-121" value="&lt;font&gt;New Manage Tools&lt;/font&gt;" style="rhombus;whiteSpace=wrap;html=1;fontSize=20;fontFamily=Verdana;fillColor=#e3c800;strokeColor=#B09500;fontColor=#000000;rounded=1;hachureGap=4;" vertex="1" parent="zzvABC9y7qfsUwYfqDOj-97">
          <mxGeometry x="266.88" y="590" width="207.5" height="160" as="geometry" />
        </mxCell>
        <mxCell id="zzvABC9y7qfsUwYfqDOj-122" value="Delete" style="rounded=1;whiteSpace=wrap;html=1;hachureGap=4;fontFamily=Verdana;fontSize=20;strokeColor=#10739e;fillColor=#b1ddf0;" vertex="1" parent="zzvABC9y7qfsUwYfqDOj-97">
          <mxGeometry x="306.26" y="800" width="128.75" height="60" as="geometry" />
        </mxCell>
        <mxCell id="zzvABC9y7qfsUwYfqDOj-123" value="Yes" style="text;html=1;strokeColor=none;fillColor=none;align=center;verticalAlign=middle;whiteSpace=wrap;rounded=0;fontSize=16;fontColor=#000000;" vertex="1" parent="zzvABC9y7qfsUwYfqDOj-97">
          <mxGeometry x="380" y="760" width="60" height="30" as="geometry" />
        </mxCell>
        <mxCell id="zzvABC9y7qfsUwYfqDOj-124" value="No" style="text;html=1;strokeColor=none;fillColor=none;align=center;verticalAlign=middle;whiteSpace=wrap;rounded=0;fontSize=16;fontColor=#000000;" vertex="1" parent="zzvABC9y7qfsUwYfqDOj-97">
          <mxGeometry x="340.63" y="520" width="60" height="30" as="geometry" />
        </mxCell>
        <mxCell id="zzvABC9y7qfsUwYfqDOj-125" value="No" style="text;html=1;strokeColor=none;fillColor=none;align=center;verticalAlign=middle;whiteSpace=wrap;rounded=0;fontSize=16;fontColor=#000000;" vertex="1" parent="zzvABC9y7qfsUwYfqDOj-97">
          <mxGeometry x="485" y="630" width="60" height="30" as="geometry" />
        </mxCell>
        <mxCell id="zzvABC9y7qfsUwYfqDOj-126" style="edgeStyle=none;rounded=0;orthogonalLoop=1;jettySize=auto;html=1;exitX=1;exitY=0.5;exitDx=0;exitDy=0;entryX=0;entryY=0.5;entryDx=0;entryDy=0;fontSize=12;fontColor=#000000;endArrow=open;startSize=14;endSize=14;" edge="1" parent="zzvABC9y7qfsUwYfqDOj-97" source="zzvABC9y7qfsUwYfqDOj-127" target="zzvABC9y7qfsUwYfqDOj-121">
          <mxGeometry relative="1" as="geometry">
            <Array as="points">
              <mxPoint x="240" y="730" />
              <mxPoint x="240" y="670" />
            </Array>
          </mxGeometry>
        </mxCell>
        <mxCell id="zzvABC9y7qfsUwYfqDOj-127" value="New Role" style="whiteSpace=wrap;html=1;fontSize=20;fontFamily=Verdana;fillColor=#f8cecc;strokeColor=#b85450;rounded=1;hachureGap=4;" vertex="1" parent="zzvABC9y7qfsUwYfqDOj-97">
          <mxGeometry x="83.75" y="700" width="120" height="60" as="geometry" />
        </mxCell>
        <mxCell id="zzvABC9y7qfsUwYfqDOj-128" style="edgeStyle=none;rounded=0;orthogonalLoop=1;jettySize=auto;html=1;exitX=0.5;exitY=1;exitDx=0;exitDy=0;fontSize=12;fontColor=#000000;endArrow=open;startSize=14;endSize=14;" edge="1" parent="zzvABC9y7qfsUwYfqDOj-97" source="zzvABC9y7qfsUwYfqDOj-129" target="zzvABC9y7qfsUwYfqDOj-118">
          <mxGeometry relative="1" as="geometry" />
        </mxCell>
        <mxCell id="zzvABC9y7qfsUwYfqDOj-129" value="User Manage" style="whiteSpace=wrap;html=1;fontSize=20;fontFamily=Verdana;fillColor=#f8cecc;strokeColor=#b85450;rounded=1;hachureGap=4;" vertex="1" parent="zzvABC9y7qfsUwYfqDOj-97">
          <mxGeometry x="83.75" y="380" width="120" height="60" as="geometry" />
        </mxCell>
        <mxCell id="zzvABC9y7qfsUwYfqDOj-130" value="Yes" style="text;html=1;strokeColor=none;fillColor=none;align=center;verticalAlign=middle;whiteSpace=wrap;rounded=0;fontSize=16;fontColor=#000000;" vertex="1" parent="zzvABC9y7qfsUwYfqDOj-97">
          <mxGeometry x="150" y="650" width="60" height="30" as="geometry" />
        </mxCell>
        <mxCell id="zzvABC9y7qfsUwYfqDOj-131" style="edgeStyle=orthogonalEdgeStyle;rounded=0;orthogonalLoop=1;jettySize=auto;html=1;exitX=0.5;exitY=1;exitDx=0;exitDy=0;fontSize=12;fontColor=#000000;endArrow=open;startSize=14;endSize=14;" edge="1" parent="1" source="zzvABC9y7qfsUwYfqDOj-113">
          <mxGeometry relative="1" as="geometry">
            <mxPoint x="940" y="790" as="targetPoint" />
            <Array as="points">
              <mxPoint x="837" y="790" />
              <mxPoint x="1062" y="790" />
            </Array>
          </mxGeometry>
        </mxCell>
        <mxCell id="zzvABC9y7qfsUwYfqDOj-132" style="edgeStyle=none;rounded=0;orthogonalLoop=1;jettySize=auto;html=1;fontSize=12;fontColor=#000000;endArrow=open;startSize=14;endSize=14;" edge="1" parent="1" source="zzvABC9y7qfsUwYfqDOj-118">
          <mxGeometry relative="1" as="geometry">
            <mxPoint x="940" y="830" as="targetPoint" />
          </mxGeometry>
        </mxCell>
      </root>
    </mxGraphModel>
  </diagram>
</mxfile>
